<svg width="105" height="110" viewBox="26 35.4 105 109.1" fill="none" xmlns="http://www.w3.org/2000/svg">
<path d="M56.9929 35.4836L73.1508 35.4859C77.9879 35.4868 82.4857 35.3154 87.3376 36.2015C101.698 38.81 106.534 56.8098 98.506 67.8896C95.0029 72.7246 89.4322 74.654 83.7832 75.4429C79.5759 75.736 75.384 75.6583 71.1693 75.6359C71.1657 81.501 71.2606 87.6677 71.1056 93.5072L56.9449 93.4898C57.0219 90.8651 56.8871 88.1531 56.9226 85.5178C57.1459 68.906 56.5609 52.082 56.9929 35.4836Z" fill="#FEFEFE"/>
<path d="M71.1555 47.0005C75.3406 47.2225 81.7386 46.3175 85.001 49.394C88.5989 52.7873 87.9163 58.4078 84.8568 61.8519C81.4089 65.04 75.8252 64.3192 71.2453 64.2845C71.1673 58.5234 71.1374 52.7619 71.1555 47.0005Z" fill="#1A1A2E"/>
<circle cx="40.5" cy="129.987" r="14.5" fill="#6C47FF"/>
<circle cx="59.5" cy="129.987" r="14.5" fill="#9175FF"/>
<circle cx="78.5" cy="129.987" r="14.5" fill="#B6A3FF"/>
<circle cx="97.5" cy="129.987" r="14.5" fill="#DBD1FF"/>
<circle cx="116.5" cy="129.987" r="14.5" fill="white"/>
</svg>
