<svg width="158" height="168" viewBox="0 0 158 168" fill="none" xmlns="http://www.w3.org/2000/svg">
<path d="M0.262528 130.486C0.0992192 122.183 0.187881 113.57 0.195649 105.253L0.207585 65.006L0.186366 43.335C0.174052 27.9209 -0.204855 15.6289 13.7836 5.65793C23.3629 -1.17 35.8255 0.0902654 46.9747 0.0937324L79.0525 0.095967L110.19 0.0938451C126.312 0.0828568 140.393 -1.60718 151.148 13.2505C154.274 17.5832 156.262 22.631 156.932 27.9316C157.303 30.7194 157.261 34.3334 157.259 37.1687L157.246 48.9574L157.243 89.4553L157.266 116.739C157.267 119.43 157.426 127.457 157.08 129.6C157.079 132.569 157.475 136.339 157.238 139.136C156.641 146.172 152.728 153.607 147.791 158.567C144.236 162.138 137.611 165.764 132.735 166.763C127.771 167.781 121.491 167.566 116.361 167.56L98.8217 167.548L33.9306 167.54C27.1044 167.514 21.9079 166.72 15.9034 163.297C4.17871 156.613 -1.3052 143.696 0.262528 130.486Z" fill="#6C47FF"/>
<path d="M0.262528 130.486C0.771588 131.042 1.45021 134.53 1.76318 135.507C2.55775 137.988 3.56981 140.207 4.97176 142.394C9.50348 149.462 16.6517 154.446 24.8507 156.253C29.7035 157.299 40.7093 156.902 46.2669 156.901L82.3196 156.902L112.945 156.912C121.872 156.919 131.337 157.945 139.526 153.832C149.861 148.64 154.715 140.598 157.08 129.6C157.079 132.569 157.475 136.34 157.238 139.136C156.641 146.173 152.728 153.607 147.791 158.567C144.236 162.138 137.611 165.764 132.735 166.763C127.771 167.781 121.491 167.566 116.361 167.56L98.8217 167.548L33.9306 167.54C27.1044 167.514 21.9079 166.72 15.9034 163.297C4.17871 156.614 -1.3052 143.696 0.262528 130.486Z" fill="#6C47FF"/>
<path d="M56.9929 35.4836L73.1508 35.4859C77.9879 35.4868 82.4857 35.3154 87.3376 36.2015C101.698 38.81 106.534 56.8098 98.506 67.8896C95.0029 72.7246 89.4322 74.654 83.7832 75.4429C79.5759 75.736 75.384 75.6583 71.1693 75.6359C71.1657 81.501 71.2606 87.6677 71.1056 93.5072L56.9449 93.4898C57.0219 90.8651 56.8871 88.1531 56.9226 85.5178C57.1459 68.906 56.5609 52.082 56.9929 35.4836Z" fill="white"/>
<path d="M71.1555 47.0005C75.3406 47.2225 81.7386 46.3175 85.001 49.394C88.5989 52.7873 87.9163 58.4078 84.8568 61.8519C81.4089 65.04 75.8252 64.3192 71.2453 64.2845C71.1673 58.5234 71.1374 52.7619 71.1555 47.0005Z" fill="#6C47FF"/>
<circle cx="40.5" cy="129.987" r="14.5" fill="white" fill-opacity="1"/>
<circle cx="59.5" cy="129.987" r="14.5" fill="white" fill-opacity="0.8"/>
<circle cx="78.5" cy="129.987" r="14.5" fill="white" fill-opacity="0.6"/>
<circle cx="97.5" cy="129.987" r="14.5" fill="white" fill-opacity="0.4"/>
<circle cx="116.5" cy="129.987" r="14.5" fill="white" fill-opacity="0.2"/>
</svg>
