<svg xmlns="http://www.w3.org/2000/svg" width="1200" height="630" viewBox="0 0 1200 630">
  <!-- Color swatches background -->
  <rect x="0" y="0" width="240" height="630" fill="#6C47FF"/>
  <rect x="240" y="0" width="240" height="630" fill="#3A86FF"/>
  <rect x="480" y="0" width="240" height="630" fill="#FF6B6B"/>
  <rect x="720" y="0" width="240" height="630" fill="#FFD166"/>
  <rect x="960" y="0" width="240" height="630" fill="#06D6A0"/>

  <!-- White overlay panel -->
  <rect x="80" y="80" width="1040" height="470" rx="24" ry="24" fill="rgba(255,255,255,0.92)"/>

  <!-- Logo text -->
  <text x="120" y="220" font-family="system-ui, -apple-system, sans-serif" font-size="72" font-weight="bold" fill="#1a1a2e">Paletta</text>

  <!-- Tagline -->
  <text x="120" y="290" font-family="system-ui, -apple-system, sans-serif" font-size="32" fill="#666">Free Color Palette Generator</text>

  <!-- Sub text -->
  <text x="120" y="360" font-family="system-ui, -apple-system, sans-serif" font-size="24" fill="#999">Generate · Explore · Export · Check Accessibility</text>

  <!-- Mini palette preview -->
  <rect x="120" y="400" width="60" height="60" rx="12" fill="#6C47FF"/>
  <rect x="190" y="400" width="60" height="60" rx="12" fill="#3A86FF"/>
  <rect x="260" y="400" width="60" height="60" rx="12" fill="#FF6B6B"/>
  <rect x="330" y="400" width="60" height="60" rx="12" fill="#FFD166"/>
  <rect x="400" y="400" width="60" height="60" rx="12" fill="#06D6A0"/>

  <!-- URL -->
  <text x="120" y="510" font-family="system-ui, -apple-system, sans-serif" font-size="20" fill="#aaa">usepaletta.io</text>
</svg>
